<svg id="Layer_1" data-name="Layer 1" xmlns="http://www.w3.org/2000/svg" viewBox="0 0 442.74 113.76"><defs><style>.cls-1,.cls-5{font-size:73.96px;font-family:HelveticaNeueLTStd-BlkEx, Helvetica Neue LT Std;}.cls-1{fill:#385eab;}.cls-2{fill:#6c7198;}.cls-3{fill:#978781;}.cls-4{fill:#c2a162;}.cls-5{fill:#efc026;}</style></defs><title>brockhamptonlogo</title><text x="-29.19" y="-266.29"/><text class="cls-1" transform="translate(18.42 97.79) scale(0.56 1)">Brockhampton</text><path class="cls-2" d="M57.38,321.84h8.88c2.38,0,2.92-1.4,2.92-3.47S68.64,315,66.26,315H57.38Zm-11.5-19.67H72.64c6.09,0,8.8,4.73,8.8,13.16,0,4.66-1.3,8.73-3.55,10.28v.15c3.84,1.78,5.09,8.14,5.09,12.06C83,348.17,80.06,355,71.35,355H45.88Zm11.5,39.94H67.43c2.33,0,3-1.78,3-4.15s-.71-4.14-3-4.14H57.38Z" transform="translate(-29.19 -266.29)"/><path class="cls-2" d="M87.19,314.52H97.28v7.77h.08c2.71-6.29,6.13-8.88,9.71-8.88a13.83,13.83,0,0,1,3.42.44v16.57a12.68,12.68,0,0,0-5.21-1.48c-3.71,0-7.67,2.15-7.67,10.87V355H87.19Z" transform="translate(-29.19 -266.29)"/><path class="cls-2" d="M129.08,344.62c4.21,0,6-3.4,6-9.91,0-6.36-1.75-9.84-6-9.84s-6,3.48-6,9.84C123.12,341.22,124.91,344.62,129.08,344.62Zm0-31.73c11.76,0,16.89,6.95,16.89,21.82s-5.13,21.89-16.89,21.89-16.88-7-16.88-21.89S117.33,312.89,129.08,312.89Z" transform="translate(-29.19 -266.29)"/><path class="cls-2" d="M171.39,330.79c-.12-2.51-.8-4.06-2-5.1a5.64,5.64,0,0,0-3.75-1.26c-4.67,0-6.29,4.59-6.29,10,0,6.22,2.08,10.21,6.21,10.21,2.92,0,5.08-1.48,5.79-6.73h10.93c-1.09,16.79-9.59,18.71-16.76,18.71-9.59,0-17.09-5.17-17.09-22,0-16.57,7.5-21.75,17.09-21.75,9.79,0,15.63,4.44,16.76,17.9Z" transform="translate(-29.19 -266.29)"/><polygon class="cls-2" points="156.8 34.03 167.22 34.03 167.22 61.32 175.1 48.23 188.94 48.23 178.56 63.32 189.98 88.69 175.89 88.69 170.47 75.08 167.22 79.81 167.22 88.69 156.8 88.69 156.8 34.03"/><path class="cls-2" d="M220.67,300.32h10.42v19.23h.08a9.84,9.84,0,0,1,9.09-6.14c5.75,0,10.09,4.59,10.09,15.83V355H239.92V334c0-5.1-1.54-7.32-4-7.32-2.75,0-4.83,2.89-4.83,9.62V355H220.67Z" transform="translate(-29.19 -266.29)"/><path class="cls-2" d="M276.27,336.56a50.33,50.33,0,0,1-8.42,1.7c-1.91.3-2.83,1.41-2.83,4,0,2.81,1.29,4.59,3.88,4.59,3.5,0,7.37-1.55,7.37-8.51Zm-20.76-9.76c.63-5.55,1.91-9,4.51-11.1s6.33-2.81,11.84-2.81c10.63,0,14.84,4.22,14.84,16.27v19.53a17.24,17.24,0,0,0,.95,6.29H277a27.41,27.41,0,0,1-.37-4c-2.34,3.85-5.88,5.62-11.42,5.62-7,0-11.43-3.33-11.43-13.68,0-7.4,3-12.13,10.67-12.72l8.8-.74c2.09-.22,2.79-1.11,2.79-3.33,0-2.66-1.87-3.92-4.83-3.92-2.38,0-4.75.67-5.25,4.59Z" transform="translate(-29.19 -266.29)"/><path class="cls-2" d="M291.61,314.52H301.7v5.55h.09c1.62-3.78,4.16-6.66,8.5-6.66,4.5,0,6.34,2.74,7.55,6.73,1.41-3.7,4.16-6.73,8.37-6.73,5,0,9,3.85,9,13.68V355H324.8V332.12c0-4.07-1-5.4-2.8-5.4-2.16,0-3.54,1.85-3.54,6.81V355H308.37V332.12c0-4.07-1-5.4-2.79-5.4-2.17,0-3.54,1.85-3.54,6.81V355H291.61Z" transform="translate(-29.19 -266.29)"/><path class="cls-2" d="M356.39,344.18c3.76,0,5.67-4,5.67-9.17,0-5.33-1.66-9.17-5.71-9.17s-5.71,3.4-5.71,9.17S352.35,344.18,356.39,344.18Zm-16.17-29.66h10.09v4.81h.08c1.88-3.85,4.75-5.92,9.38-5.92,6.75,0,13,6.58,13,21.6s-6.22,21.59-13,21.59a9.22,9.22,0,0,1-9-5.69h-.08v18.56H340.22Z" transform="translate(-29.19 -266.29)"/><path class="cls-2" d="M374.36,314.52h4.84v-13h10.42v13h5.63v11.54h-5.63v14.27c0,3.77.87,4,3.12,4,.84,0,1.8-.07,2.8-.14V355a32,32,0,0,1-7.59.88c-6.34,0-8.75-2.14-8.75-13.16V326.06h-4.84Z" transform="translate(-29.19 -266.29)"/><path class="cls-2" d="M414.5,344.62c4.21,0,6-3.4,6-9.91,0-6.36-1.76-9.84-6-9.84s-6,3.48-6,9.84C408.54,341.22,410.34,344.62,414.5,344.62Zm0-31.73c11.76,0,16.89,6.95,16.89,21.82s-5.13,21.89-16.89,21.89-16.88-7-16.88-21.89S402.75,312.89,414.5,312.89Z" transform="translate(-29.19 -266.29)"/><path class="cls-2" d="M435.14,314.52h10.09v5h.08a10.46,10.46,0,0,1,9.42-6.14c5.75,0,10.09,4.59,10.09,15.83V355H454.4V334c0-5.1-1.54-7.32-4-7.32-2.76,0-4.84,2.89-4.84,9.62V355H435.14Z" transform="translate(-29.19 -266.29)"/><path class="cls-3" d="M52.78,312.74h8.88c2.37,0,2.91-1.4,2.91-3.47s-.54-3.33-2.91-3.33H52.78ZM41.27,293.07H68c6.09,0,8.8,4.73,8.8,13.16,0,4.66-1.29,8.73-3.54,10.28v.15c3.83,1.78,5.08,8.14,5.08,12.06,0,10.35-2.92,17.16-11.63,17.16H41.27ZM52.78,333h10c2.34,0,3.05-1.78,3.05-4.14s-.71-4.15-3.05-4.15h-10Z" transform="translate(-29.19 -266.29)"/><path class="cls-3" d="M82.58,305.42H92.67v7.77h.08c2.71-6.29,6.13-8.88,9.72-8.88a13.89,13.89,0,0,1,3.42.44v16.57a12.73,12.73,0,0,0-5.22-1.48C97,319.84,93,322,93,330.71v15.17H82.58Z" transform="translate(-29.19 -266.29)"/><path class="cls-3" d="M124.48,335.52c4.21,0,6-3.4,6-9.91s-1.75-9.84-6-9.84-6,3.48-6,9.84S120.31,335.52,124.48,335.52Zm0-31.73c11.75,0,16.88,7,16.88,21.82s-5.13,21.89-16.88,21.89-16.89-6.95-16.89-21.89S112.72,303.79,124.48,303.79Z" transform="translate(-29.19 -266.29)"/><path class="cls-3" d="M166.79,321.69c-.13-2.51-.8-4.05-2-5.1a5.68,5.68,0,0,0-3.75-1.26c-4.67,0-6.3,4.59-6.3,10,0,6.21,2.09,10.2,6.21,10.2,2.92,0,5.09-1.48,5.8-6.73h10.92c-1.08,16.79-9.59,18.71-16.76,18.71-9.59,0-17.09-5.17-17.09-22,0-16.57,7.5-21.75,17.09-21.75,9.8,0,15.63,4.44,16.76,17.9Z" transform="translate(-29.19 -266.29)"/><polygon class="cls-3" points="152.19 24.93 162.61 24.93 162.61 52.22 170.49 39.13 184.33 39.13 173.95 54.22 185.38 79.59 171.28 79.59 165.87 65.98 162.61 70.71 162.61 79.59 152.19 79.59 152.19 24.93"/><path class="cls-3" d="M216.06,291.22h10.42v19.23h.09a9.83,9.83,0,0,1,9.08-6.14c5.76,0,10.09,4.59,10.09,15.83v25.74H235.32V325c0-5.11-1.54-7.33-4-7.33-2.75,0-4.84,2.89-4.84,9.62v18.64H216.06Z" transform="translate(-29.19 -266.29)"/><path class="cls-3" d="M271.67,327.46a50.33,50.33,0,0,1-8.42,1.7c-1.92.3-2.84,1.41-2.84,4,0,2.82,1.3,4.59,3.88,4.59,3.5,0,7.38-1.55,7.38-8.5Zm-20.76-9.76c.62-5.55,1.91-9,4.5-11.1s6.34-2.81,11.84-2.81c10.63,0,14.84,4.22,14.84,16.27v19.53a17.19,17.19,0,0,0,1,6.29H272.38a27.33,27.33,0,0,1-.38-4c-2.33,3.85-5.88,5.62-11.42,5.62-7,0-11.42-3.33-11.42-13.68,0-7.4,3-12.13,10.67-12.72l8.8-.74c2.08-.22,2.79-1.11,2.79-3.33,0-2.66-1.88-3.92-4.84-3.92-2.37,0-4.75.67-5.25,4.59Z" transform="translate(-29.19 -266.29)"/><path class="cls-3" d="M287,305.42H297.1V311h.08c1.63-3.77,4.17-6.66,8.5-6.66,4.51,0,6.34,2.74,7.55,6.73,1.42-3.7,4.17-6.73,8.38-6.73,5,0,9,3.85,9,13.68v27.89H320.19V323c0-4.07-1-5.4-2.79-5.4-2.17,0-3.54,1.85-3.54,6.81v21.45H303.77V323c0-4.07-1-5.4-2.8-5.4-2.16,0-3.54,1.85-3.54,6.81v21.45H287Z" transform="translate(-29.19 -266.29)"/><path class="cls-3" d="M351.79,335.08c3.75,0,5.67-4,5.67-9.17,0-5.33-1.67-9.17-5.71-9.17s-5.71,3.4-5.71,9.17S347.75,335.08,351.79,335.08Zm-16.18-29.66H345.7v4.81h.09c1.87-3.85,4.75-5.92,9.38-5.92,6.75,0,13,6.58,13,21.6s-6.21,21.59-13,21.59a9.2,9.2,0,0,1-9.05-5.69H346v18.56H335.61Z" transform="translate(-29.19 -266.29)"/><path class="cls-3" d="M369.76,305.42h4.83v-13H385v13h5.63V317H385v14.27c0,3.77.88,4,3.13,4,.83,0,1.79-.08,2.79-.15v10.8a31.85,31.85,0,0,1-7.58.88c-6.34,0-8.76-2.14-8.76-13.16V317h-4.83Z" transform="translate(-29.19 -266.29)"/><path class="cls-3" d="M409.9,335.52c4.21,0,6-3.4,6-9.91s-1.75-9.84-6-9.84-6,3.48-6,9.84S405.73,335.52,409.9,335.52Zm0-31.73c11.76,0,16.88,7,16.88,21.82s-5.12,21.89-16.88,21.89S393,340.55,393,325.61,398.14,303.79,409.9,303.79Z" transform="translate(-29.19 -266.29)"/><path class="cls-3" d="M430.53,305.42h10.09v5h.09a10.45,10.45,0,0,1,9.42-6.14c5.75,0,10.09,4.59,10.09,15.83v25.74H449.79V325c0-5.11-1.54-7.33-4-7.33-2.75,0-4.83,2.89-4.83,9.62v18.64H430.53Z" transform="translate(-29.19 -266.29)"/><path class="cls-4" d="M48.17,303.64h8.88c2.38,0,2.92-1.4,2.92-3.47s-.54-3.33-2.92-3.33H48.17ZM36.67,284H63.43c6.09,0,8.8,4.73,8.8,13.16,0,4.66-1.3,8.73-3.55,10.28v.15c3.84,1.78,5.09,8.14,5.09,12.06,0,10.35-2.92,17.16-11.63,17.16H36.67Zm11.5,39.94h10c2.33,0,3-1.78,3-4.14s-.71-4.15-3-4.15h-10Z" transform="translate(-29.19 -266.29)"/><path class="cls-4" d="M78,296.32H88.07v7.77h.08c2.71-6.29,6.13-8.88,9.71-8.88a13.33,13.33,0,0,1,3.42.45v16.56a12.68,12.68,0,0,0-5.21-1.48c-3.71,0-7.67,2.15-7.67,10.87v15.17H78Z" transform="translate(-29.19 -266.29)"/><path class="cls-4" d="M119.87,326.42c4.21,0,6-3.4,6-9.91s-1.75-9.83-6-9.83-6,3.47-6,9.83S115.7,326.42,119.87,326.42Zm0-31.73c11.76,0,16.89,7,16.89,21.82s-5.13,21.89-16.89,21.89S103,331.45,103,316.51,108.12,294.69,119.87,294.69Z" transform="translate(-29.19 -266.29)"/><path class="cls-4" d="M162.18,312.59c-.12-2.51-.8-4-2-5.1a5.64,5.64,0,0,0-3.75-1.26c-4.67,0-6.29,4.59-6.29,10,0,6.21,2.08,10.2,6.21,10.2,2.92,0,5.08-1.48,5.79-6.73h10.93c-1.09,16.79-9.59,18.71-16.76,18.71-9.59,0-17.09-5.17-17.09-22,0-16.57,7.5-21.75,17.09-21.75,9.79,0,15.63,4.44,16.76,17.9Z" transform="translate(-29.19 -266.29)"/><polygon class="cls-4" points="147.59 15.83 158.01 15.83 158.01 43.12 165.89 30.03 179.73 30.03 169.35 45.12 180.77 70.49 166.68 70.49 161.26 56.88 158.01 61.61 158.01 70.49 147.59 70.49 147.59 15.83"/><path class="cls-4" d="M211.46,282.12h10.42v19.23H222a9.84,9.84,0,0,1,9.09-6.14c5.75,0,10.09,4.59,10.09,15.83v25.74H230.72V315.85c0-5.11-1.55-7.33-4-7.33-2.75,0-4.83,2.89-4.83,9.62v18.64H211.46Z" transform="translate(-29.19 -266.29)"/><path class="cls-4" d="M267.06,318.36a50.1,50.1,0,0,1-8.42,1.7c-1.91.3-2.83,1.41-2.83,4,0,2.81,1.29,4.58,3.88,4.58,3.5,0,7.37-1.55,7.37-8.5ZM246.3,308.6c.63-5.55,1.91-9,4.51-11.1s6.33-2.81,11.84-2.81c10.63,0,14.84,4.22,14.84,16.27v19.53a17.15,17.15,0,0,0,1,6.29H267.77a27.41,27.41,0,0,1-.37-4c-2.34,3.85-5.88,5.62-11.42,5.62-7,0-11.43-3.32-11.43-13.68,0-7.39,3-12.13,10.68-12.72l8.79-.74c2.09-.22,2.79-1.11,2.79-3.33,0-2.66-1.87-3.92-4.83-3.92-2.38,0-4.75.67-5.25,4.59Z" transform="translate(-29.19 -266.29)"/><path class="cls-4" d="M282.4,296.32h10.09v5.55h.09c1.62-3.77,4.16-6.66,8.5-6.66,4.5,0,6.34,2.74,7.55,6.73,1.41-3.7,4.16-6.73,8.38-6.73,5,0,9,3.85,9,13.68v27.89H315.59V313.92c0-4.06-1-5.4-2.8-5.4-2.16,0-3.54,1.85-3.54,6.81v21.45H299.16V313.92c0-4.06-1-5.4-2.79-5.4-2.17,0-3.54,1.85-3.54,6.81v21.45H282.4Z" transform="translate(-29.19 -266.29)"/><path class="cls-4" d="M347.18,326c3.76,0,5.67-4,5.67-9.17,0-5.33-1.66-9.17-5.71-9.17s-5.71,3.4-5.71,9.17S343.14,326,347.18,326ZM331,296.32H341.1v4.81h.08c1.88-3.85,4.75-5.92,9.38-5.92,6.75,0,13,6.58,13,21.6s-6.22,21.59-13,21.59a9.22,9.22,0,0,1-9.05-5.69h-.08v18.56H331Z" transform="translate(-29.19 -266.29)"/><path class="cls-4" d="M365.15,296.32H370v-13h10.42v13H386v11.54h-5.63v14.27c0,3.77.87,4,3.12,4,.84,0,1.8-.08,2.8-.15v10.8a32,32,0,0,1-7.59.88c-6.34,0-8.75-2.14-8.75-13.16V307.86h-4.84Z" transform="translate(-29.19 -266.29)"/><path class="cls-4" d="M405.3,326.42c4.21,0,6-3.4,6-9.91s-1.75-9.83-6-9.83-6,3.47-6,9.83S401.13,326.42,405.3,326.42Zm0-31.73c11.75,0,16.88,7,16.88,21.82s-5.13,21.89-16.88,21.89-16.89-6.95-16.89-21.89S393.54,294.69,405.3,294.69Z" transform="translate(-29.19 -266.29)"/><path class="cls-4" d="M425.93,296.32H436v5h.08a10.46,10.46,0,0,1,9.42-6.14c5.75,0,10.09,4.59,10.09,15.83v25.74H445.19V315.85c0-5.11-1.54-7.33-4-7.33-2.76,0-4.84,2.89-4.84,9.62v18.64H425.93Z" transform="translate(-29.19 -266.29)"/><text class="cls-5" transform="translate(0 61.39) scale(0.56 1)">Brockhampton</text></svg>